<svg xmlns="http://www.w3.org/2000/svg" width="22" height="15" viewBox="0 0 22 15" fill="none">
  <mask id="path-1-inside-1_699_2757" fill="white">
    <path d="M0.310547 14.526V13.1927H10.9772H21.6439V14.526H0.310547ZM0.310547 8.16599V6.83266H21.6439V8.16599H0.310547ZM0.310547 1.80599V0.472656H21.6439V1.80599H0.310547Z"/>
  </mask>
  <path d="M0.310547 14.526V13.1927H10.9772H21.6439V14.526H0.310547ZM0.310547 8.16599V6.83266H21.6439V8.16599H0.310547ZM0.310547 1.80599V0.472656H21.6439V1.80599H0.310547Z" fill="black"/>
  <path d="M0.310547 14.526H-14.6895V29.526H0.310547V14.526ZM0.310547 13.1927V-1.80734H-14.6895V13.1927H0.310547ZM21.6439 13.1927H36.6439V-1.80734H21.6439V13.1927ZM21.6439 14.526V29.526H36.6439V14.526H21.6439ZM0.310547 8.16599H-14.6895V23.166H0.310547V8.16599ZM0.310547 6.83266V-8.16734H-14.6895V6.83266H0.310547ZM21.6439 6.83266H36.6439V-8.16734H21.6439V6.83266ZM21.6439 8.16599V23.166H36.6439V8.16599H21.6439ZM0.310547 1.80599H-14.6895V16.806H0.310547V1.80599ZM0.310547 0.472656V-14.5273H-14.6895V0.472656H0.310547ZM21.6439 0.472656H36.6439V-14.5273H21.6439V0.472656ZM21.6439 1.80599V16.806H36.6439V1.80599H21.6439ZM0.310547 14.526H15.3105V13.1927H0.310547H-14.6895V14.526H0.310547ZM21.6439 13.1927H6.64388V14.526H21.6439H36.6439V13.1927H21.6439ZM21.6439 14.526V-0.474009H0.310547V14.526V29.526H21.6439V14.526ZM0.310547 8.16599H15.3105V6.83266H0.310547H-14.6895V8.16599H0.310547ZM0.310547 6.83266V21.8327H21.6439V6.83266V-8.16734H0.310547V6.83266ZM21.6439 6.83266H6.64388V8.16599H21.6439H36.6439V6.83266H21.6439ZM21.6439 8.16599V-6.83401H0.310547V8.16599V23.166H21.6439V8.16599ZM0.310547 1.80599H15.3105V0.472656H0.310547H-14.6895V1.80599H0.310547ZM0.310547 0.472656V15.4727H21.6439V0.472656V-14.5273H0.310547V0.472656ZM21.6439 0.472656H6.64388V1.80599H21.6439H36.6439V0.472656H21.6439ZM21.6439 1.80599V-13.194H0.310547V1.80599V16.806H21.6439V1.80599ZM0.310547 13.1927V28.1927H10.9772V13.1927V-1.80734H0.310547V13.1927ZM10.9772 13.1927V28.1927H21.6439V13.1927V-1.80734H10.9772V13.1927Z" fill="white" mask="url(#path-1-inside-1_699_2757)"/>
</svg>