<svg width="21" height="20" viewBox="0 0 21 20" fill="none" xmlns="http://www.w3.org/2000/svg">
<path d="M16.7508 14.8488C16.7508 14.9911 16.6253 15.1166 16.483 15.1166H4.16155C4.01925 15.1166 3.89369 14.9911 3.89369 14.8488V8.4202C4.06948 8.62109 4.262 8.80525 4.47126 8.97266C5.66825 9.89342 6.87361 10.8309 8.03711 11.8019C8.6649 12.3292 9.44336 12.9738 10.3139 12.9738H10.3223H10.3306C11.2012 12.9738 11.9796 12.3292 12.6074 11.8019C13.7709 10.8309 14.9763 9.89342 16.1733 8.97266C16.3825 8.80525 16.5751 8.62109 16.7508 8.4202V14.8488ZM16.7508 6.05134C16.7508 6.76283 16.0645 7.69196 15.5204 8.11886C14.3987 8.99777 13.2771 9.88504 12.1638 10.7723C11.7201 11.1323 10.9166 11.9023 10.3306 11.9023H10.3223H10.3139C9.72796 11.9023 8.92439 11.1323 8.48075 10.7723C7.36747 9.88504 6.24581 8.99777 5.12416 8.11886C4.37081 7.52455 3.89369 6.69587 3.89369 5.74163C3.89369 5.59933 4.01925 5.47377 4.16155 5.47377H16.483C16.8011 5.47377 16.7508 5.84208 16.7508 6.05134ZM17.8223 5.74163C17.8223 5.00502 17.2196 4.40234 16.483 4.40234H4.16155C3.42494 4.40234 2.82227 5.00502 2.82227 5.74163V14.8488C2.82227 15.5854 3.42494 16.1881 4.16155 16.1881H16.483C17.2196 16.1881 17.8223 15.5854 17.8223 14.8488V5.74163Z" fill="#3E9CDC"/>
</svg>
