<svg width="21" height="20" viewBox="0 0 21 20" fill="none" xmlns="http://www.w3.org/2000/svg">
<path d="M15.1807 12.2861C15.1807 12.9365 15.0576 13.5078 14.8115 14C14.5654 14.4922 14.2344 14.8994 13.8184 15.2217C13.3262 15.6084 12.7842 15.8838 12.1924 16.0479C11.6064 16.2119 10.8594 16.2939 9.95117 16.2939H4.71289V3.20703H9.33594C10.2969 3.20703 11.0234 3.24512 11.5156 3.32129C12.0137 3.3916 12.4795 3.54395 12.9131 3.77832C13.3818 4.03027 13.7305 4.36719 13.959 4.78906C14.1934 5.21094 14.3105 5.69727 14.3105 6.24805C14.3105 6.88672 14.1494 7.45508 13.8271 7.95312C13.5107 8.45117 13.0713 8.81738 12.5088 9.05176V9.12207C13.3174 9.29199 13.9648 9.64062 14.4512 10.168C14.9375 10.6895 15.1807 11.3955 15.1807 12.2861ZM10.9707 6.90723C10.9707 6.69629 10.915 6.47949 10.8037 6.25684C10.6982 6.03418 10.5312 5.87305 10.3027 5.77344C10.0859 5.67969 9.82812 5.62988 9.5293 5.62402C9.23633 5.6123 8.79688 5.60645 8.21094 5.60645H7.98242V8.375H8.39551C8.95801 8.375 9.35059 8.36914 9.57324 8.35742C9.80176 8.3457 10.0361 8.28418 10.2764 8.17285C10.54 8.0498 10.7217 7.87988 10.8213 7.66309C10.9209 7.44629 10.9707 7.19434 10.9707 6.90723ZM11.7969 12.2246C11.7969 11.8203 11.7148 11.5039 11.5508 11.2754C11.3867 11.0469 11.1406 10.874 10.8125 10.7568C10.6133 10.6807 10.3379 10.6396 9.98633 10.6338C9.64062 10.6221 9.1748 10.6162 8.58887 10.6162H7.98242V13.8945H8.1582C9.01367 13.8945 9.60547 13.8887 9.93359 13.877C10.2617 13.8652 10.5957 13.7861 10.9355 13.6396C11.2344 13.5107 11.4512 13.3232 11.5859 13.0771C11.7266 12.8252 11.7969 12.541 11.7969 12.2246Z" fill="#3E9CDC"/>
</svg>
