<svg width="18" height="21" viewBox="0 0 18 21" fill="none" xmlns="http://www.w3.org/2000/svg">
<path d="M16.8117 4.60826L13.3295 1.12612C12.9166 0.71317 12.0907 0.367188 11.4992 0.367188H1.49916C0.907645 0.367188 0.427734 0.847099 0.427734 1.43862V19.2958C0.427734 19.8873 0.907645 20.3672 1.49916 20.3672H16.4992C17.0907 20.3672 17.5706 19.8873 17.5706 19.2958V6.43862C17.5706 5.8471 17.2246 5.02121 16.8117 4.60826ZM11.8563 1.88504C12.046 1.95201 12.2358 2.05246 12.3139 2.13058L15.8072 5.62388C15.8853 5.70201 15.9858 5.89174 16.0527 6.08147H11.8563V1.88504ZM16.142 18.9386H1.85631V1.79576H10.4277V6.43862C10.4277 7.03013 10.9076 7.51005 11.4992 7.51005H16.142V18.9386ZM4.71345 9.29576V10.01C4.71345 10.2109 4.8697 10.3672 5.07059 10.3672H12.9277C13.1286 10.3672 13.2849 10.2109 13.2849 10.01V9.29576C13.2849 9.09487 13.1286 8.93862 12.9277 8.93862H5.07059C4.8697 8.93862 4.71345 9.09487 4.71345 9.29576ZM12.9277 11.7958H5.07059C4.8697 11.7958 4.71345 11.952 4.71345 12.1529V12.8672C4.71345 13.0681 4.8697 13.2243 5.07059 13.2243H12.9277C13.1286 13.2243 13.2849 13.0681 13.2849 12.8672V12.1529C13.2849 11.952 13.1286 11.7958 12.9277 11.7958ZM12.9277 14.6529H5.07059C4.8697 14.6529 4.71345 14.8092 4.71345 15.01V15.7243C4.71345 15.9252 4.8697 16.0815 5.07059 16.0815H12.9277C13.1286 16.0815 13.2849 15.9252 13.2849 15.7243V15.01C13.2849 14.8092 13.1286 14.6529 12.9277 14.6529Z" fill="#272733"/>
</svg>
