<svg width="56" height="55" viewBox="0 0 56 55" fill="none" xmlns="http://www.w3.org/2000/svg">
<path d="M24.4926 29.122V27.8363C24.4926 27.4747 24.7738 27.1934 25.1354 27.1934H39.2783C39.6399 27.1934 39.9211 27.4747 39.9211 27.8363V29.122C39.9211 29.4836 39.6399 29.7649 39.2783 29.7649H25.1354C24.7738 29.7649 24.4926 29.4836 24.4926 29.122Z" fill="white"/>
<path d="M25.1354 32.3363H39.2783C39.6399 32.3363 39.9211 32.6175 39.9211 32.9792V34.2649C39.9211 34.6265 39.6399 34.9077 39.2783 34.9077H25.1354C24.7738 34.9077 24.4926 34.6265 24.4926 34.2649V32.9792C24.4926 32.6175 24.7738 32.3363 25.1354 32.3363Z" fill="white"/>
<path d="M25.1354 37.4792H39.2783C39.6399 37.4792 39.9211 37.7604 39.9211 38.122V39.4077C39.9211 39.7693 39.6399 40.0506 39.2783 40.0506H25.1354C24.7738 40.0506 24.4926 39.7693 24.4926 39.4077V38.122C24.4926 37.7604 24.7738 37.4792 25.1354 37.4792Z" fill="white"/>
<path fill-rule="evenodd" clip-rule="evenodd" d="M16.7783 21.0644C12.6831 21.0644 9.36328 17.7446 9.36328 13.6494C9.36328 9.55418 12.6831 6.23438 16.7783 6.23438C20.2223 6.23438 23.1179 8.58234 23.9517 11.7649H36.7069C37.7716 11.7649 39.2582 12.3876 40.0015 13.1309L46.2694 19.3988C47.0127 20.1421 47.6354 21.6287 47.6354 22.6934V45.8363C47.6354 46.901 46.7716 47.7649 45.7069 47.7649H18.7069C17.6421 47.7649 16.7783 46.901 16.7783 45.8363L16.7783 21.0644ZM19.3497 20.6064C21.9722 19.6367 23.8964 17.2266 24.1619 14.3363H34.7783V22.6934C34.7783 23.7582 35.6421 24.622 36.7069 24.622H45.064V45.1934H19.3497V20.6064ZM38.1734 14.939C38.0327 14.7983 37.6912 14.6175 37.3497 14.497V22.0506H44.9033C44.7827 21.7091 44.6019 21.3675 44.4613 21.2269L38.1734 14.939ZM17.7783 14.6494H21.7783V12.6494H17.7783V8.64941H15.7783V12.6494H11.7783V14.6494H15.7783V18.6494H17.7783V14.6494Z" fill="white"/>
</svg>
