<svg width="56" height="55" viewBox="0 0 56 55" fill="none" xmlns="http://www.w3.org/2000/svg">
<path d="M38.2866 35.2151C38.2866 36.6214 37.1214 37.7866 35.7151 37.7866C34.3089 37.7866 33.1437 36.6214 33.1437 35.2151C33.1437 33.8089 34.3089 32.6437 35.7151 32.6437C37.1214 32.6437 38.2866 33.8089 38.2866 35.2151ZM22.858 19.7866C22.858 21.1928 21.6928 22.358 20.2866 22.358C18.8803 22.358 17.7151 21.1928 17.7151 19.7866C17.7151 18.3803 18.8803 17.2151 20.2866 17.2151C21.6928 17.2151 22.858 18.3803 22.858 19.7866ZM43.4294 35.2151C43.4294 30.9562 39.9741 27.5008 35.7151 27.5008C31.4562 27.5008 28.0008 30.9562 28.0008 35.2151C28.0008 39.4741 31.4562 42.9294 35.7151 42.9294C39.9741 42.9294 43.4294 39.4741 43.4294 35.2151ZM41.5008 13.358C41.5008 12.6549 40.9182 12.0723 40.2151 12.0723H37.0008C36.5991 12.0723 36.2174 12.2732 35.9763 12.5946L14.762 40.8803C14.6013 41.1013 14.5008 41.3624 14.5008 41.6437C14.5008 42.3468 15.0834 42.9294 15.7866 42.9294H19.0008C19.4026 42.9294 19.7843 42.7285 20.0254 42.4071L41.2397 14.1214C41.4004 13.9004 41.5008 13.6392 41.5008 13.358ZM28.0008 19.7866C28.0008 15.5276 24.5455 12.0723 20.2866 12.0723C16.0276 12.0723 12.5723 15.5276 12.5723 19.7866C12.5723 24.0455 16.0276 27.5008 20.2866 27.5008C24.5455 27.5008 28.0008 24.0455 28.0008 19.7866Z" fill="white"/>
</svg>
