<svg width="56" height="55" viewBox="0 0 56 55" fill="none" xmlns="http://www.w3.org/2000/svg">
<path d="M34.428 24.928C34.428 29.8901 30.3901 33.928 25.428 33.928C20.466 33.928 16.428 29.8901 16.428 24.928C16.428 19.966 20.466 15.928 25.428 15.928C30.3901 15.928 34.428 19.966 34.428 24.928ZM44.7137 41.6423C44.7137 40.9593 44.4325 40.2963 43.9704 39.8343L37.0798 32.9436C38.707 30.5932 39.5709 27.7807 39.5709 24.928C39.5709 17.1133 33.2427 10.7852 25.428 10.7852C17.6133 10.7852 11.2852 17.1133 11.2852 24.928C11.2852 32.7427 17.6133 39.0709 25.428 39.0709C28.2807 39.0709 31.0932 38.207 33.4436 36.5798L40.3343 43.4503C40.7963 43.9325 41.4593 44.2137 42.1423 44.2137C43.5486 44.2137 44.7137 43.0486 44.7137 41.6423Z" fill="white"/>
</svg>
