<svg width="56" height="55" viewBox="0 0 56 55" fill="none" xmlns="http://www.w3.org/2000/svg">
<path d="M24.4286 31.7852V29.8566H27V24.0709H26.9598C26.6384 24.5731 26.3371 24.7941 25.8549 25.216L24.308 23.6088L27.2812 20.8566H29.5714V29.8566H32.1429V31.7852H24.4286ZM34.7143 26.6423C34.7143 22.986 32.5045 18.2852 28.2857 18.2852C24.067 18.2852 21.8571 22.986 21.8571 26.6423C21.8571 30.2985 24.067 34.9994 28.2857 34.9994C32.5045 34.9994 34.7143 30.2985 34.7143 26.6423ZM45 31.7852C42.1674 31.7852 39.8571 34.0954 39.8571 36.928H16.7143C16.7143 34.0954 14.404 31.7852 11.5714 31.7852V21.4994C14.404 21.4994 16.7143 19.1892 16.7143 16.3566H39.8571C39.8571 19.1892 42.1674 21.4994 45 21.4994V31.7852ZM47.5714 15.0709C47.5714 14.3677 46.9888 13.7852 46.2857 13.7852H10.2857C9.58259 13.7852 9 14.3677 9 15.0709V38.2137C9 38.9169 9.58259 39.4994 10.2857 39.4994H46.2857C46.9888 39.4994 47.5714 38.9169 47.5714 38.2137V15.0709Z" fill="white"/>
</svg>
