<svg width="56" height="55" viewBox="0 0 56 55" fill="none" xmlns="http://www.w3.org/2000/svg">
<path d="M44.9286 38.8566C44.9286 39.1981 44.6272 39.4994 44.2857 39.4994H14.7143C14.3728 39.4994 14.0714 39.1981 14.0714 38.8566V23.428C14.4933 23.9102 14.9554 24.3521 15.4576 24.7539C18.3304 26.9637 21.2232 29.2137 24.0156 31.5441C25.5223 32.8097 27.3906 34.3566 29.4799 34.3566H29.5H29.5201C31.6094 34.3566 33.4777 32.8097 34.9844 31.5441C37.7768 29.2137 40.6696 26.9637 43.5424 24.7539C44.0446 24.3521 44.5067 23.9102 44.9286 23.428V38.8566ZM44.9286 17.7427C44.9286 19.4503 43.2813 21.6802 41.9754 22.7048C39.2835 24.8142 36.5915 26.9436 33.9196 29.0731C32.8549 29.9369 30.9263 31.7852 29.5201 31.7852H29.5H29.4799C28.0737 31.7852 26.1451 29.9369 25.0804 29.0731C22.4085 26.9436 19.7165 24.8142 17.0246 22.7048C15.2165 21.2785 14.0714 19.2896 14.0714 16.9994C14.0714 16.6579 14.3728 16.3566 14.7143 16.3566H44.2857C45.0491 16.3566 44.9286 17.2405 44.9286 17.7427ZM47.5 16.9994C47.5 15.2316 46.0536 13.7852 44.2857 13.7852H14.7143C12.9464 13.7852 11.5 15.2316 11.5 16.9994V38.8566C11.5 40.6244 12.9464 42.0709 14.7143 42.0709H44.2857C46.0536 42.0709 47.5 40.6244 47.5 38.8566V16.9994Z" fill="white"/>
</svg>
