<svg width="21" height="20" viewBox="0 0 21 20" fill="none" xmlns="http://www.w3.org/2000/svg">
<g clip-path="url(#clip0_674_2204)">
<path d="M16.9125 13.4567C16.9726 13.8444 16.8457 14.0085 16.7175 14.0085C16.5892 14.0085 16.4035 13.8508 16.1964 13.5381C15.9894 13.2254 15.9186 12.8778 16.0188 12.6995C16.0565 12.6377 16.1174 12.5923 16.1888 12.5729C16.2602 12.5534 16.3366 12.5612 16.4022 12.5948C16.7428 12.7188 16.8764 13.2241 16.9125 13.4567ZM15.0248 14.307C15.435 14.6417 15.5592 15.0397 15.3428 15.3201C15.2769 15.3985 15.1929 15.4609 15.0975 15.5022C15.0021 15.5435 14.8981 15.5626 14.7937 15.5579C14.5649 15.5582 14.3432 15.481 14.1672 15.3395C13.7958 15.0255 13.6863 14.5151 13.9294 14.2256C13.9831 14.1662 14.0501 14.1195 14.1254 14.089C14.2007 14.0585 14.2821 14.0451 14.3636 14.0498C14.6084 14.0577 14.8425 14.1488 15.0248 14.307V14.307ZM14.3409 17.5376C16.1029 17.5376 18.0146 18.1217 20.1321 19.936C20.3431 20.1169 20.625 19.8921 20.4406 19.6659C18.3606 17.1267 16.4329 16.6421 14.5185 16.2337C12.1727 15.7323 10.965 14.4543 10.1194 13.0522C9.95237 12.7731 9.87622 12.8222 9.86153 13.1815C9.84749 13.714 9.88911 14.2465 9.98577 14.7709V14.7709C9.89092 14.7709 9.79473 14.7709 9.69988 14.7709C8.49769 14.7709 7.32249 14.4261 6.3229 13.78C5.32331 13.1339 4.54422 12.2157 4.08416 11.1413C3.6241 10.0669 3.50372 8.8847 3.73826 7.74415C3.9728 6.60361 4.55171 5.55595 5.40179 4.73366C6.25188 3.91137 7.33495 3.35138 8.51404 3.12451C9.69314 2.89764 10.9153 3.01408 12.026 3.4591C13.1367 3.90412 14.086 4.65773 14.7539 5.62464C15.4218 6.59155 15.7783 7.72833 15.7783 8.89123C15.7789 9.11962 15.766 9.34786 15.7396 9.57482C15.0992 9.49682 14.4521 9.48513 13.8092 9.53993C13.578 9.55931 13.6114 9.66916 13.7851 9.69371C15.789 10.0439 17.1757 11.2444 17.4909 13.4347C17.4921 13.4458 17.4968 13.4563 17.5044 13.4647C17.5121 13.473 17.5222 13.4788 17.5335 13.4812C17.5447 13.4837 17.5565 13.4826 17.5671 13.4782C17.5777 13.4738 17.5866 13.4663 17.5925 13.4567C18.6349 11.7711 19.0713 9.79924 18.8336 7.84859C18.5959 5.89795 17.6975 4.07824 16.2785 2.6733C14.8595 1.26837 12.9997 0.357211 10.9892 0.0819456C8.97869 -0.193319 6.93054 0.182789 5.16421 1.15161C3.39787 2.12042 2.01267 3.62747 1.22466 5.43768C0.43666 7.2479 0.290163 9.25949 0.808024 11.1587C1.32588 13.0579 2.47898 14.7379 4.08746 15.9367C5.69594 17.1355 7.66935 17.7856 9.69988 17.7857C11.0425 17.7896 12.3797 17.5363 14.3409 17.5363V17.5376Z" fill="#3E9CDC"/>
</g>
<defs>
<clipPath id="clip0_674_2204">
<rect width="20" height="20" fill="white" transform="translate(0.5)"/>
</clipPath>
</defs>
</svg>
