<svg width="21" height="20" viewBox="0 0 21 20" fill="none" xmlns="http://www.w3.org/2000/svg">
<path fill-rule="evenodd" clip-rule="evenodd" d="M3.7795 9.93155C3.7795 8.9475 3.8627 8.32298 5.91777 6.80172C7.61915 5.54223 13.0727 1.23828 13.0727 1.23828V8.42295H17.2199V18.7635H5.07484C4.36242 18.7635 3.7793 18.1852 3.7793 17.4787L3.7795 9.93162V9.93155Z" fill="#3E9CDC"/>
<path fill-rule="evenodd" clip-rule="evenodd" d="M13.0721 8.42383V12.5868L5.45117 17.7354L15.0864 14.6265V8.42383H13.0721Z" fill="black" fill-opacity="0.2"/>
<path fill-rule="evenodd" clip-rule="evenodd" d="M9.59025 8.20721C10.0359 7.6806 10.6868 7.49473 11.0442 7.79209C11.4016 8.08952 11.3301 8.75755 10.8845 9.28417C10.4391 9.81072 9.78796 9.99638 9.43057 9.69896C9.07318 9.40159 9.14482 8.73369 9.59025 8.20715V8.20721Z" fill="#231F20"/>
</svg>
