<svg width="21" height="20" viewBox="0 0 21 20" fill="none" xmlns="http://www.w3.org/2000/svg">
<g clip-path="url(#clip0_674_2217)">
<path d="M9.34098 0C10.7513 0 12.093 0.323103 13.2971 0.901077C13.4859 0.986269 13.676 1.08823 13.8642 1.19028L13.0386 1.92159L11.8009 0.646297L9.66823 2.51651L8.41236 1.17307L4.4907 4.65889L7.00147 7.39646L6.02129 8.24641L8.49843 10.984L7.51816 11.8336L11.0615 15.7274L13.1587 13.823L14.9828 15.8639C14.6213 16.136 14.2257 16.4086 13.7962 16.6462C12.4888 17.3773 10.9749 17.8016 9.35836 17.8016C4.38713 17.8016 0.34576 13.8066 0.34576 8.89314C0.328205 4.01286 4.37029 0 9.34098 0ZM7.68952 8.34864L9.83959 6.44418L11.7664 8.56952L9.61588 10.4738L7.68952 8.34864ZM9.22074 12.0214L11.3533 10.1001L13.2971 12.2253L11.1469 14.1298L9.22074 12.0214ZM6.15963 4.72713L8.30907 2.82267L10.2354 4.948L8.08528 6.85238L6.15963 4.72713ZM10.0976 3.70661L11.6974 2.27842L13.1425 3.85978L11.5428 5.30485L10.0976 3.70661ZM12.9531 10.2528L14.5523 8.82456L15.9974 10.4224L14.3976 11.8516L12.9531 10.2528ZM14.3633 13.4668L15.9631 12.0382L17.407 13.6195L15.8079 15.0644L14.3633 13.4668ZM15.017 6.12107L16.0833 5.16879L17.0462 6.22339L15.9801 7.17531L15.017 6.12107ZM13.641 2.97548L14.7073 2.00651L15.6709 3.07753L14.6038 4.02972L13.641 2.97548ZM16.3757 9.26693L17.4419 8.31474L18.4223 9.36898L17.3391 10.3209L16.3757 9.26693ZM11.577 6.90341L13.1768 5.47513L14.6213 7.05614L13.0222 8.48469L11.577 6.90341Z" fill="#3E9CDC"/>
</g>
<defs>
<clipPath id="clip0_674_2217">
<rect width="20" height="20" fill="white" transform="translate(0.5)"/>
</clipPath>
</defs>
</svg>
