<svg width="21" height="21" viewBox="0 0 21 21" fill="none" xmlns="http://www.w3.org/2000/svg">
<path d="M14.9342 8.5106C14.9342 8.43917 14.8984 8.35882 14.8449 8.30525L14.3984 7.85882C14.3449 7.80525 14.2645 7.76953 14.1931 7.76953C14.1217 7.76953 14.0413 7.80525 13.9877 7.85882L10.4788 11.3677L6.96987 7.85882C6.91629 7.80525 6.83594 7.76953 6.76451 7.76953C6.68415 7.76953 6.61272 7.80525 6.55915 7.85882L6.11272 8.30525C6.05915 8.35882 6.02344 8.43917 6.02344 8.5106C6.02344 8.58203 6.05915 8.66239 6.11272 8.71596L10.2734 12.8767C10.327 12.9302 10.4074 12.966 10.4788 12.966C10.5502 12.966 10.6306 12.9302 10.6842 12.8767L14.8449 8.71596C14.8984 8.66239 14.9342 8.58203 14.9342 8.5106Z" fill="black"/>
</svg>
